<svg width="2858" height="1723" xmlns="http://www.w3.org/2000/svg" xmlns:xlink="http://www.w3.org/1999/xlink" xml:space="preserve" overflow="hidden"><defs><clipPath id="clip0"><rect x="1556" y="709" width="2858" height="1723"/></clipPath><clipPath id="clip1"><rect x="1557" y="709" width="2854" height="1721"/></clipPath><clipPath id="clip2"><rect x="1557" y="709" width="2854" height="1721"/></clipPath><clipPath id="clip3"><rect x="1557" y="709" width="2854" height="1721"/></clipPath><clipPath id="clip4"><rect x="1557" y="709" width="2854" height="1721"/></clipPath><clipPath id="clip5"><rect x="1557" y="709" width="2854" height="1721"/></clipPath><clipPath id="clip6"><rect x="1557" y="709" width="2854" height="1721"/></clipPath><clipPath id="clip7"><rect x="1557" y="709" width="2854" height="1721"/></clipPath><clipPath id="clip8"><rect x="1557" y="709" width="2854" height="1721"/></clipPath><clipPath id="clip9"><rect x="1557" y="709" width="2854" height="1721"/></clipPath><clipPath id="clip10"><rect x="1557" y="709" width="2854" height="1721"/></clipPath><clipPath id="clip11"><rect x="1557" y="709" width="2854" height="1721"/></clipPath><clipPath id="clip12"><rect x="1557" y="709" width="2854" height="1721"/></clipPath><clipPath id="clip13"><rect x="1557" y="709" width="2854" height="1721"/></clipPath><clipPath id="clip14"><rect x="1557" y="709" width="2854" height="1721"/></clipPath><clipPath id="clip15"><rect x="1557" y="709" width="2854" height="1721"/></clipPath><clipPath id="clip16"><rect x="1557" y="709" width="2854" height="1721"/></clipPath><clipPath id="clip17"><rect x="1557" y="709" width="2854" height="1721"/></clipPath><clipPath id="clip18"><rect x="1557" y="709" width="2854" height="1721"/></clipPath><clipPath id="clip19"><rect x="1557" y="709" width="2854" height="1721"/></clipPath><clipPath id="clip20"><rect x="1557" y="709" width="2854" height="1721"/></clipPath><clipPath id="clip21"><rect x="1557" y="709" width="2854" height="1721"/></clipPath><clipPath id="clip22"><rect x="1557" y="709" width="2854" height="1721"/></clipPath><clipPath id="clip23"><rect x="1557" y="709" width="2854" height="1721"/></clipPath><clipPath id="clip24"><rect x="1557" y="709" width="2854" height="1721"/></clipPath><clipPath id="clip25"><rect x="1557" y="709" width="2854" height="1721"/></clipPath><clipPath id="clip26"><rect x="1557" y="709" width="2854" height="1721"/></clipPath><clipPath id="clip27"><rect x="1557" y="709" width="2854" height="1721"/></clipPath><clipPath id="clip28"><rect x="1557" y="709" width="2854" height="1721"/></clipPath><clipPath id="clip29"><rect x="1557" y="709" width="2854" height="1721"/></clipPath><clipPath id="clip30"><rect x="1557" y="709" width="2854" height="1721"/></clipPath><clipPath id="clip31"><rect x="1557" y="709" width="2854" height="1721"/></clipPath><clipPath id="clip32"><rect x="1557" y="709" width="2854" height="1721"/></clipPath><clipPath id="clip33"><rect x="1557" y="709" width="2854" height="1721"/></clipPath><clipPath id="clip34"><rect x="1557" y="709" width="2854" height="1721"/></clipPath><clipPath id="clip35"><rect x="1557" y="709" width="2854" height="1721"/></clipPath><clipPath id="clip36"><rect x="1557" y="709" width="2854" height="1721"/></clipPath><clipPath id="clip37"><rect x="1557" y="709" width="2854" height="1721"/></clipPath><clipPath id="clip38"><rect x="1557" y="709" width="2854" height="1721"/></clipPath><clipPath id="clip39"><rect x="1557" y="709" width="2854" height="1721"/></clipPath><clipPath id="clip40"><rect x="1557" y="709" width="2854" height="1721"/></clipPath><clipPath id="clip41"><rect x="1557" y="709" width="2854" height="1721"/></clipPath><clipPath id="clip42"><rect x="1557" y="709" width="2854" height="1721"/></clipPath><clipPath id="clip43"><rect x="1557" y="709" width="2854" height="1721"/></clipPath><clipPath id="clip44"><rect x="1557" y="709" width="2854" height="1721"/></clipPath><clipPath id="clip45"><rect x="1557" y="709" width="2854" height="1721"/></clipPath><clipPath id="clip46"><rect x="1557" y="709" width="2854" height="1721"/></clipPath><clipPath id="clip47"><rect x="1557" y="709" width="2854" height="1721"/></clipPath><clipPath id="clip48"><rect x="1557" y="709" width="2854" height="1721"/></clipPath><clipPath id="clip49"><rect x="1557" y="709" width="2854" height="1721"/></clipPath><clipPath id="clip50"><rect x="1557" y="709" width="2854" height="1721"/></clipPath><clipPath id="clip51"><rect x="1557" y="709" width="2854" height="1721"/></clipPath><clipPath id="clip52"><rect x="1557" y="709" width="2854" height="1721"/></clipPath><clipPath id="clip53"><rect x="1557" y="709" width="2854" height="1721"/></clipPath><clipPath id="clip54"><rect x="1557" y="709" width="2854" height="1721"/></clipPath><clipPath id="clip55"><rect x="1557" y="709" width="2854" height="1721"/></clipPath><clipPath id="clip56"><rect x="1557" y="709" width="2854" height="1721"/></clipPath><clipPath id="clip57"><rect x="1557" y="709" width="2854" height="1721"/></clipPath><clipPath id="clip58"><rect x="1557" y="709" width="2854" height="1721"/></clipPath><clipPath id="clip59"><rect x="1557" y="709" width="2854" height="1721"/></clipPath><clipPath id="clip60"><rect x="1557" y="709" width="2854" height="1721"/></clipPath><clipPath id="clip61"><rect x="1557" y="709" width="2854" height="1721"/></clipPath><clipPath id="clip62"><rect x="1557" y="709" width="2854" height="1721"/></clipPath><clipPath id="clip63"><rect x="1557" y="709" width="2854" height="1721"/></clipPath><clipPath id="clip64"><rect x="2161" y="879" width="2071" height="976"/></clipPath><clipPath id="clip65"><rect x="1557" y="709" width="2854" height="1721"/></clipPath><clipPath id="clip66"><rect x="2161" y="879" width="2071" height="976"/></clipPath><clipPath id="clip67"><rect x="1557" y="709" width="2854" height="1721"/></clipPath><clipPath id="clip68"><rect x="2161" y="879" width="2071" height="976"/></clipPath><clipPath id="clip69"><rect x="1557" y="709" width="2854" height="1721"/></clipPath><clipPath id="clip70"><rect x="2161" y="879" width="2071" height="976"/></clipPath><clipPath id="clip71"><rect x="1557" y="709" width="2854" height="1721"/></clipPath><clipPath id="clip72"><rect x="2161" y="879" width="2071" height="976"/></clipPath><clipPath id="clip73"><rect x="1557" y="709" width="2854" height="1721"/></clipPath><clipPath id="clip74"><rect x="2161" y="879" width="2071" height="976"/></clipPath><clipPath id="clip75"><rect x="1557" y="709" width="2854" height="1721"/></clipPath><clipPath id="clip76"><rect x="1557" y="709" width="2854" height="1721"/></clipPath><clipPath id="clip77"><rect x="1557" y="709" width="2854" height="1721"/></clipPath><clipPath id="clip78"><rect x="1557" y="709" width="2854" height="1721"/></clipPath><clipPath id="clip79"><rect x="1557" y="709" width="2854" height="1721"/></clipPath><clipPath id="clip80"><rect x="1557" y="709" width="2854" height="1721"/></clipPath><clipPath id="clip81"><rect x="1557" y="709" width="2854" height="1721"/></clipPath><clipPath id="clip82"><rect x="1557" y="709" width="2854" height="1721"/></clipPath><clipPath id="clip83"><rect x="1557" y="709" width="2854" height="1721"/></clipPath><clipPath id="clip84"><rect x="1557" y="709" width="2854" height="1721"/></clipPath><clipPath id="clip85"><rect x="1557" y="709" width="2854" height="1721"/></clipPath><clipPath id="clip86"><rect x="1557" y="709" width="2854" height="1721"/></clipPath><clipPath id="clip87"><rect x="1557" y="709" width="2854" height="1721"/></clipPath><clipPath id="clip88"><rect x="1557" y="709" width="2854" height="1721"/></clipPath><clipPath id="clip89"><rect x="1557" y="709" width="2854" height="1721"/></clipPath><clipPath id="clip90"><rect x="1557" y="709" width="2854" height="1721"/></clipPath><clipPath id="clip91"><rect x="1557" y="709" width="2854" height="1721"/></clipPath><clipPath id="clip92"><rect x="1557" y="709" width="2854" height="1721"/></clipPath><clipPath id="clip93"><rect x="1557" y="709" width="2854" height="1721"/></clipPath><clipPath id="clip94"><rect x="1557" y="709" width="2854" height="1721"/></clipPath><clipPath id="clip95"><rect x="1557" y="709" width="2854" height="1721"/></clipPath><clipPath id="clip96"><rect x="1557" y="709" width="2854" height="1721"/></clipPath><clipPath id="clip97"><rect x="1557" y="709" width="2854" height="1721"/></clipPath></defs><g clip-path="url(#clip0)" transform="translate(-1556 -709)"><rect x="1557" y="710" width="2855" height="1720" fill="#FFFFFF"/><g clip-path="url(#clip1)"><path d="M2161.5 1754.56 4228.5 1754.56M2161.5 1657.55 4228.5 1657.55M2161.5 1560.55 4228.5 1560.55M2161.5 1462.55 4228.5 1462.55M2161.5 1365.54 4228.5 1365.54M2161.5 1268.54 4228.5 1268.54M2161.5 1171.54 4228.5 1171.54M2161.5 1074.54 4228.5 1074.54M2161.5 976.532 4228.5 976.532M2161.5 879.5 4228.5 879.5" stroke="#D9D9D9" stroke-width="3.4375" stroke-linejoin="round" stroke-miterlimit="10" fill="none"/></g><g clip-path="url(#clip2)"><path d="M2161.5 1851.5 4228.5 1851.5" stroke="#D9D9D9" stroke-width="3.4375" stroke-linejoin="round" stroke-miterlimit="10" fill="none" fill-rule="evenodd"/></g><g clip-path="url(#clip3)"><path d="M2161.5 1851.5 4228.5 1851.5" stroke="#D9D9D9" stroke-width="3.4375" stroke-linejoin="round" stroke-miterlimit="10" fill="none" fill-rule="evenodd"/></g><g clip-path="url(#clip4)"><path d="M2161.5 1851.5 2161.5 1915.5M2574.58 1851.5 2574.58 1915.5M2988.6 1851.5 2988.6 1915.5M3401.61 1851.5 3401.61 1915.5M3815.63 1851.5 3815.63 1915.5M4228.5 1851.5 4228.5 1915.5" stroke="#D9D9D9" stroke-width="3.4375" stroke-linejoin="round" stroke-miterlimit="10" fill="none"/></g><g clip-path="url(#clip5)"><text fill="#595959" font-family="Calibri,Calibri_MSFontService,sans-serif" font-weight="400" font-size="41" transform="matrix(1 0 0 1 2357.86 1895)">1</text></g><g clip-path="url(#clip6)"><text fill="#595959" font-family="Calibri,Calibri_MSFontService,sans-serif" font-weight="400" font-size="41" transform="matrix(1 0 0 1 2771.33 1895)">2</text></g><g clip-path="url(#clip7)"><text fill="#595959" font-family="Calibri,Calibri_MSFontService,sans-serif" font-weight="400" font-size="41" transform="matrix(1 0 0 1 3184.8 1895)">3</text></g><g clip-path="url(#clip8)"><text fill="#595959" font-family="Calibri,Calibri_MSFontService,sans-serif" font-weight="400" font-size="41" transform="matrix(1 0 0 1 3598.28 1895)">4</text></g><g clip-path="url(#clip9)"><text fill="#595959" font-family="Calibri,Calibri_MSFontService,sans-serif" font-weight="400" font-size="41" transform="matrix(1 0 0 1 4011.75 1895)">5</text></g><g clip-path="url(#clip10)"><path d="M1635.5 1915.5 4228.5 1915.5M1635.5 1915.5 1635.5 1980.5M2161.57 1915.5 2161.57 1980.5M2161.57 1915.5 2161.57 1980.5M2574.58 1915.5 2574.58 1980.5M2574.58 1915.5 2574.58 1980.5M2988.6 1915.5 2988.6 1980.5M2988.6 1915.5 2988.6 1980.5M3401.61 1915.5 3401.61 1980.5M3401.61 1915.5 3401.61 1980.5M3815.63 1915.5 3815.63 1980.5M3815.63 1915.5 3815.63 1980.5M4228.5 1915.5 4228.5 1980.5M4228.5 1915.5 4228.5 1980.5" stroke="#D9D9D9" stroke-width="3.4375" stroke-linejoin="round" stroke-miterlimit="10" fill="none"/></g><g clip-path="url(#clip11)"><path d="M1653 1947 1768 1947" stroke="#ED7D31" stroke-width="10.3125" stroke-linecap="round" stroke-linejoin="round" stroke-miterlimit="10" fill="none" fill-rule="evenodd"/></g><g clip-path="url(#clip12)"><path d="M1722 1946.5C1722 1952.85 1716.85 1958 1710.5 1958 1704.15 1958 1699 1952.85 1699 1946.5 1699 1940.15 1704.15 1935 1710.5 1935 1716.85 1935 1722 1940.15 1722 1946.5Z" fill="#ED7D31"/></g><g clip-path="url(#clip13)"><text fill="#595959" font-family="Calibri,Calibri_MSFontService,sans-serif" font-weight="400" font-size="41" transform="matrix(1 0 0 1 1781.2 1958)">Cluster Average</text></g><g clip-path="url(#clip14)"><text fill="#595959" font-family="Calibri,Calibri_MSFontService,sans-serif" font-weight="400" font-size="41" transform="matrix(1 0 0 1 2321.3 1960)">14.90</text></g><g clip-path="url(#clip15)"><text fill="#595959" font-family="Calibri,Calibri_MSFontService,sans-serif" font-weight="400" font-size="41" transform="matrix(1 0 0 1 2734.78 1960)">14.97</text></g><g clip-path="url(#clip16)"><text fill="#595959" font-family="Calibri,Calibri_MSFontService,sans-serif" font-weight="400" font-size="41" transform="matrix(1 0 0 1 3148.25 1960)">15.11</text></g><g clip-path="url(#clip17)"><text fill="#595959" font-family="Calibri,Calibri_MSFontService,sans-serif" font-weight="400" font-size="41" transform="matrix(1 0 0 1 3561.72 1960)">15.44</text></g><g clip-path="url(#clip18)"><text fill="#595959" font-family="Calibri,Calibri_MSFontService,sans-serif" font-weight="400" font-size="41" transform="matrix(1 0 0 1 3975.2 1960)">15.02</text></g><g clip-path="url(#clip19)"><path d="M1635.5 1980.5 4228.5 1980.5M1635.5 1980.5 1635.5 2046.5M2161.57 1980.5 2161.57 2046.5M2161.57 1980.5 2161.57 2046.5M2574.58 1980.5 2574.58 2046.5M2574.58 1980.5 2574.58 2046.5M2988.6 1980.5 2988.6 2046.5M2988.6 1980.5 2988.6 2046.5M3401.61 1980.5 3401.61 2046.5M3401.61 1980.5 3401.61 2046.5M3815.63 1980.5 3815.63 2046.5M3815.63 1980.5 3815.63 2046.5M4228.5 1980.5 4228.5 2046.5M4228.5 1980.5 4228.5 2046.5" stroke="#D9D9D9" stroke-width="3.4375" stroke-linejoin="round" stroke-miterlimit="10" fill="none"/></g><g clip-path="url(#clip20)"><path d="M1653 2013 1768 2013" stroke="#4472C4" stroke-width="10.3125" stroke-linecap="round" stroke-linejoin="round" stroke-miterlimit="10" fill="none" fill-rule="evenodd"/></g><g clip-path="url(#clip21)"><path d="M1722 2012.5C1722 2018.85 1716.85 2024 1710.5 2024 1704.15 2024 1699 2018.85 1699 2012.5 1699 2006.15 1704.15 2001 1710.5 2001 1716.85 2001 1722 2006.15 1722 2012.5Z" fill="#4472C4"/></g><g clip-path="url(#clip22)"><text fill="#595959" font-family="Calibri,Calibri_MSFontService,sans-serif" font-weight="400" font-size="41" transform="matrix(1 0 0 1 1781.2 2024)">Standalone Average</text></g><g clip-path="url(#clip23)"><text fill="#595959" font-family="Calibri,Calibri_MSFontService,sans-serif" font-weight="400" font-size="41" transform="matrix(1 0 0 1 2321.3 2025)">28.94</text></g><g clip-path="url(#clip24)"><text fill="#595959" font-family="Calibri,Calibri_MSFontService,sans-serif" font-weight="400" font-size="41" transform="matrix(1 0 0 1 2734.78 2025)">27.45</text></g><g clip-path="url(#clip25)"><text fill="#595959" font-family="Calibri,Calibri_MSFontService,sans-serif" font-weight="400" font-size="41" transform="matrix(1 0 0 1 3148.25 2025)">27.77</text></g><g clip-path="url(#clip26)"><text fill="#595959" font-family="Calibri,Calibri_MSFontService,sans-serif" font-weight="400" font-size="41" transform="matrix(1 0 0 1 3561.72 2025)">28.64</text></g><g clip-path="url(#clip27)"><text fill="#595959" font-family="Calibri,Calibri_MSFontService,sans-serif" font-weight="400" font-size="41" transform="matrix(1 0 0 1 3975.2 2025)">28.40</text></g><g clip-path="url(#clip28)"><path d="M1635.5 2046.5 4228.5 2046.5M1635.5 2046.5 1635.5 2112.5M2161.57 2046.5 2161.57 2112.5M2161.57 2046.5 2161.57 2112.5M2574.58 2046.5 2574.58 2112.5M2574.58 2046.5 2574.58 2112.5M2988.6 2046.5 2988.6 2112.5M2988.6 2046.5 2988.6 2112.5M3401.61 2046.5 3401.61 2112.5M3401.61 2046.5 3401.61 2112.5M3815.63 2046.5 3815.63 2112.5M3815.63 2046.5 3815.63 2112.5M4228.5 2046.5 4228.5 2112.5M4228.5 2046.5 4228.5 2112.5" stroke="#D9D9D9" stroke-width="3.4375" stroke-linejoin="round" stroke-miterlimit="10" fill="none"/></g><g clip-path="url(#clip29)"><path d="M1653 2078 1768 2078" stroke="#ED7D31" stroke-width="10.3125" stroke-linecap="round" stroke-linejoin="round" stroke-miterlimit="10" stroke-dasharray="0 20.625" stroke-opacity="0.74902" fill="none" fill-rule="evenodd"/></g><g clip-path="url(#clip30)"><path d="M1722 2078.5C1722 2084.85 1716.85 2090 1710.5 2090 1704.15 2090 1699 2084.85 1699 2078.5 1699 2072.15 1704.15 2067 1710.5 2067 1716.85 2067 1722 2072.15 1722 2078.5Z" fill="#ED7D31"/></g><g clip-path="url(#clip31)"><text fill="#595959" font-family="Calibri,Calibri_MSFontService,sans-serif" font-weight="400" font-size="41" transform="matrix(1 0 0 1 1781.2 2090)">Cluster Maximum</text></g><g clip-path="url(#clip32)"><text fill="#595959" font-family="Calibri,Calibri_MSFontService,sans-serif" font-weight="400" font-size="41" transform="matrix(1 0 0 1 2310.85 2091)">181.34</text></g><g clip-path="url(#clip33)"><text fill="#595959" font-family="Calibri,Calibri_MSFontService,sans-serif" font-weight="400" font-size="41" transform="matrix(1 0 0 1 2724.33 2091)">141.08</text></g><g clip-path="url(#clip34)"><text fill="#595959" font-family="Calibri,Calibri_MSFontService,sans-serif" font-weight="400" font-size="41" transform="matrix(1 0 0 1 3137.8 2091)">184.82</text></g><g clip-path="url(#clip35)"><text fill="#595959" font-family="Calibri,Calibri_MSFontService,sans-serif" font-weight="400" font-size="41" transform="matrix(1 0 0 1 3551.27 2091)">183.20</text></g><g clip-path="url(#clip36)"><text fill="#595959" font-family="Calibri,Calibri_MSFontService,sans-serif" font-weight="400" font-size="41" transform="matrix(1 0 0 1 3964.75 2091)">322.33</text></g><g clip-path="url(#clip37)"><path d="M1635.5 2112.5 4228.5 2112.5M1635.5 2112.5 1635.5 2178.5M2161.57 2112.5 2161.57 2178.5M2161.57 2112.5 2161.57 2178.5M2574.58 2112.5 2574.58 2178.5M2574.58 2112.5 2574.58 2178.5M2988.6 2112.5 2988.6 2178.5M2988.6 2112.5 2988.6 2178.5M3401.61 2112.5 3401.61 2178.5M3401.61 2112.5 3401.61 2178.5M3815.63 2112.5 3815.63 2178.5M3815.63 2112.5 3815.63 2178.5M4228.5 2112.5 4228.5 2178.5M4228.5 2112.5 4228.5 2178.5" stroke="#D9D9D9" stroke-width="3.4375" stroke-linejoin="round" stroke-miterlimit="10" fill="none"/></g><g clip-path="url(#clip38)"><path d="M1653 2144 1768 2144" stroke="#4472C4" stroke-width="10.3125" stroke-linecap="round" stroke-linejoin="round" stroke-miterlimit="10" stroke-dasharray="0 20.625" stroke-opacity="0.74902" fill="none" fill-rule="evenodd"/></g><g clip-path="url(#clip39)"><path d="M1722 2144.5C1722 2150.85 1716.85 2156 1710.5 2156 1704.15 2156 1699 2150.85 1699 2144.5 1699 2138.15 1704.15 2133 1710.5 2133 1716.85 2133 1722 2138.15 1722 2144.5Z" fill="#4472C4"/></g><g clip-path="url(#clip40)"><text fill="#595959" font-family="Calibri,Calibri_MSFontService,sans-serif" font-weight="400" font-size="41" transform="matrix(1 0 0 1 1781.2 2156)">Standalone Maximum</text></g><g clip-path="url(#clip41)"><text fill="#595959" font-family="Calibri,Calibri_MSFontService,sans-serif" font-weight="400" font-size="41" transform="matrix(1 0 0 1 2310.85 2157)">161.25</text></g><g clip-path="url(#clip42)"><text fill="#595959" font-family="Calibri,Calibri_MSFontService,sans-serif" font-weight="400" font-size="41" transform="matrix(1 0 0 1 2724.33 2157)">144.90</text></g><g clip-path="url(#clip43)"><text fill="#595959" font-family="Calibri,Calibri_MSFontService,sans-serif" font-weight="400" font-size="41" transform="matrix(1 0 0 1 3137.8 2157)">125.16</text></g><g clip-path="url(#clip44)"><text fill="#595959" font-family="Calibri,Calibri_MSFontService,sans-serif" font-weight="400" font-size="41" transform="matrix(1 0 0 1 3551.27 2157)">278.33</text></g><g clip-path="url(#clip45)"><text fill="#595959" font-family="Calibri,Calibri_MSFontService,sans-serif" font-weight="400" font-size="41" transform="matrix(1 0 0 1 3964.75 2157)">120.02</text></g><g clip-path="url(#clip46)"><path d="M1635.5 2178.5 4228.5 2178.5M1635.5 2178.5 1635.5 2244.5M2161.57 2178.5 2161.57 2244.5M2161.57 2178.5 2161.57 2244.5M2574.58 2178.5 2574.58 2244.5M2574.58 2178.5 2574.58 2244.5M2988.6 2178.5 2988.6 2244.5M2988.6 2178.5 2988.6 2244.5M3401.61 2178.5 3401.61 2244.5M3401.61 2178.5 3401.61 2244.5M3815.63 2178.5 3815.63 2244.5M3815.63 2178.5 3815.63 2244.5M4228.5 2178.5 4228.5 2244.5M4228.5 2178.5 4228.5 2244.5" stroke="#D9D9D9" stroke-width="3.4375" stroke-linejoin="round" stroke-miterlimit="10" fill="none"/></g><g clip-path="url(#clip47)"><path d="M1653 2210 1768 2210" stroke="#ED7D31" stroke-width="10.3125" stroke-linecap="round" stroke-linejoin="round" stroke-miterlimit="10" stroke-dasharray="0 20.625" stroke-opacity="0.74902" fill="none" fill-rule="evenodd"/></g><g clip-path="url(#clip48)"><path d="M1722 2210.5C1722 2216.85 1716.85 2222 1710.5 2222 1704.15 2222 1699 2216.85 1699 2210.5 1699 2204.15 1704.15 2199 1710.5 2199 1716.85 2199 1722 2204.15 1722 2210.5Z" fill="#ED7D31"/></g><g clip-path="url(#clip49)"><text fill="#595959" font-family="Calibri,Calibri_MSFontService,sans-serif" font-weight="400" font-size="41" transform="matrix(1 0 0 1 1781.2 2222)">Cluster Minimum</text></g><g clip-path="url(#clip50)"><text fill="#595959" font-family="Calibri,Calibri_MSFontService,sans-serif" font-weight="400" font-size="41" transform="matrix(1 0 0 1 2331.75 2223)">4.44</text></g><g clip-path="url(#clip51)"><text fill="#595959" font-family="Calibri,Calibri_MSFontService,sans-serif" font-weight="400" font-size="41" transform="matrix(1 0 0 1 2745.23 2223)">4.22</text></g><g clip-path="url(#clip52)"><text fill="#595959" font-family="Calibri,Calibri_MSFontService,sans-serif" font-weight="400" font-size="41" transform="matrix(1 0 0 1 3158.7 2223)">3.98</text></g><g clip-path="url(#clip53)"><text fill="#595959" font-family="Calibri,Calibri_MSFontService,sans-serif" font-weight="400" font-size="41" transform="matrix(1 0 0 1 3572.17 2223)">3.61</text></g><g clip-path="url(#clip54)"><text fill="#595959" font-family="Calibri,Calibri_MSFontService,sans-serif" font-weight="400" font-size="41" transform="matrix(1 0 0 1 3985.65 2223)">4.38</text></g><g clip-path="url(#clip55)"><path d="M1635.5 2244.5 4228.5 2244.5M1635.5 2244.5 1635.5 2309.5M1635.5 2309.5 4228.5 2309.5M2161.57 2244.5 2161.57 2309.5M2161.57 2244.5 2161.57 2309.5M2574.58 2244.5 2574.58 2309.5M2574.58 2244.5 2574.58 2309.5M2988.6 2244.5 2988.6 2309.5M2988.6 2244.5 2988.6 2309.5M3401.61 2244.5 3401.61 2309.5M3401.61 2244.5 3401.61 2309.5M3815.63 2244.5 3815.63 2309.5M3815.63 2244.5 3815.63 2309.5M4228.5 2244.5 4228.5 2309.5M4228.5 2244.5 4228.5 2309.5" stroke="#D9D9D9" stroke-width="3.4375" stroke-linejoin="round" stroke-miterlimit="10" fill="none"/></g><g clip-path="url(#clip56)"><path d="M1653 2276 1768 2276" stroke="#4472C4" stroke-width="10.3125" stroke-linecap="round" stroke-linejoin="round" stroke-miterlimit="10" stroke-dasharray="0 20.625" stroke-opacity="0.74902" fill="none" fill-rule="evenodd"/></g><g clip-path="url(#clip57)"><path d="M1722 2275.5C1722 2281.85 1716.85 2287 1710.5 2287 1704.15 2287 1699 2281.85 1699 2275.5 1699 2269.15 1704.15 2264 1710.5 2264 1716.85 2264 1722 2269.15 1722 2275.5Z" fill="#4472C4"/></g><g clip-path="url(#clip58)"><text fill="#595959" font-family="Calibri,Calibri_MSFontService,sans-serif" font-weight="400" font-size="41" transform="matrix(1 0 0 1 1781.2 2287)">Standalone Minimum</text></g><g clip-path="url(#clip59)"><text fill="#595959" font-family="Calibri,Calibri_MSFontService,sans-serif" font-weight="400" font-size="41" transform="matrix(1 0 0 1 2331.75 2289)">8.44</text></g><g clip-path="url(#clip60)"><text fill="#595959" font-family="Calibri,Calibri_MSFontService,sans-serif" font-weight="400" font-size="41" transform="matrix(1 0 0 1 2745.23 2289)">8.39</text></g><g clip-path="url(#clip61)"><text fill="#595959" font-family="Calibri,Calibri_MSFontService,sans-serif" font-weight="400" font-size="41" transform="matrix(1 0 0 1 3158.7 2289)">9.23</text></g><g clip-path="url(#clip62)"><text fill="#595959" font-family="Calibri,Calibri_MSFontService,sans-serif" font-weight="400" font-size="41" transform="matrix(1 0 0 1 3572.17 2289)">8.99</text></g><g clip-path="url(#clip63)"><text fill="#595959" font-family="Calibri,Calibri_MSFontService,sans-serif" font-weight="400" font-size="41" transform="matrix(1 0 0 1 3985.65 2289)">7.90</text></g><g clip-path="url(#clip64)"><path d="M2368 1707 2782.09 1706.06 3195.1 1705.06 3609.12 1702 4022 1706.06" stroke="#ED7D31" stroke-width="10.3125" stroke-linecap="round" stroke-linejoin="round" stroke-miterlimit="10" fill="none"/></g><g clip-path="url(#clip65)"><path d="M2380.19 1707.34C2380.19 1713.69 2375.04 1718.84 2368.69 1718.84 2362.34 1718.84 2357.19 1713.69 2357.19 1707.34 2357.19 1700.99 2362.34 1695.84 2368.69 1695.84 2375.04 1695.84 2380.19 1700.99 2380.19 1707.34Z" fill="#ED7D31"/><path d="M2794.19 1706.34C2794.19 1712.69 2789.04 1717.84 2782.69 1717.84 2776.34 1717.84 2771.19 1712.69 2771.19 1706.34 2771.19 1699.99 2776.34 1694.84 2782.69 1694.84 2789.04 1694.84 2794.19 1699.99 2794.19 1706.34Z" fill="#ED7D31"/><path d="M3207.19 1705.34C3207.19 1711.69 3202.04 1716.84 3195.69 1716.84 3189.34 1716.84 3184.19 1711.69 3184.19 1705.34 3184.19 1698.99 3189.34 1693.84 3195.69 1693.84 3202.04 1693.84 3207.19 1698.99 3207.19 1705.34Z" fill="#ED7D31"/><path d="M3621.19 1702.34C3621.19 1708.69 3616.04 1713.84 3609.69 1713.84 3603.34 1713.84 3598.19 1708.69 3598.19 1702.34 3598.19 1695.99 3603.34 1690.84 3609.69 1690.84 3616.04 1690.84 3621.19 1695.99 3621.19 1702.34Z" fill="#ED7D31"/><path d="M4034.19 1706.34C4034.19 1712.69 4029.04 1717.84 4022.69 1717.84 4016.34 1717.84 4011.19 1712.69 4011.19 1706.34 4011.19 1699.99 4016.34 1694.84 4022.69 1694.84 4029.04 1694.84 4034.19 1699.99 4034.19 1706.34Z" fill="#ED7D31"/></g><g clip-path="url(#clip66)"><path d="M2368 1570 2782.09 1585 3195.1 1582.05 3609.12 1573.05 4022 1576.05" stroke="#4472C4" stroke-width="10.3125" stroke-linecap="round" stroke-linejoin="round" stroke-miterlimit="10" fill="none"/></g><g clip-path="url(#clip67)"><path d="M2380.19 1570.34C2380.19 1576.69 2375.04 1581.84 2368.69 1581.84 2362.34 1581.84 2357.19 1576.69 2357.19 1570.34 2357.19 1563.99 2362.34 1558.84 2368.69 1558.84 2375.04 1558.84 2380.19 1563.99 2380.19 1570.34Z" fill="#4472C4"/><path d="M2794.19 1585.34C2794.19 1591.69 2789.04 1596.84 2782.69 1596.84 2776.34 1596.84 2771.19 1591.69 2771.19 1585.34 2771.19 1578.99 2776.34 1573.84 2782.69 1573.84 2789.04 1573.84 2794.19 1578.99 2794.19 1585.34Z" fill="#4472C4"/><path d="M3207.19 1582.34C3207.19 1588.69 3202.04 1593.84 3195.69 1593.84 3189.34 1593.84 3184.19 1588.69 3184.19 1582.34 3184.19 1575.99 3189.34 1570.84 3195.69 1570.84 3202.04 1570.84 3207.19 1575.99 3207.19 1582.34Z" fill="#4472C4"/><path d="M3621.19 1573.34C3621.19 1579.69 3616.04 1584.84 3609.69 1584.84 3603.34 1584.84 3598.19 1579.69 3598.19 1573.34 3598.19 1566.99 3603.34 1561.84 3609.69 1561.84 3616.04 1561.84 3621.19 1566.99 3621.19 1573.34Z" fill="#4472C4"/><path d="M4034.19 1576.34C4034.19 1582.69 4029.04 1587.84 4022.69 1587.84 4016.34 1587.84 4011.19 1582.69 4011.19 1576.34 4011.19 1569.99 4016.34 1564.84 4022.69 1564.84 4029.04 1564.84 4034.19 1569.99 4034.19 1576.34Z" fill="#4472C4"/></g><g clip-path="url(#clip68)"><path d="M2368 1320.04 2782.09 1432 3195.1 1311.04 3609.12 1315.04 4022 929" stroke="#ED7D31" stroke-width="10.3125" stroke-linecap="round" stroke-linejoin="round" stroke-miterlimit="10" stroke-dasharray="0 20.625" stroke-opacity="0.74902" fill="none"/></g><g clip-path="url(#clip69)"><path d="M2380.19 1320.34C2380.19 1326.69 2375.04 1331.84 2368.69 1331.84 2362.34 1331.84 2357.19 1326.69 2357.19 1320.34 2357.19 1313.99 2362.34 1308.84 2368.69 1308.84 2375.04 1308.84 2380.19 1313.99 2380.19 1320.34Z" fill="#ED7D31"/><path d="M2794.19 1432.34C2794.19 1438.69 2789.04 1443.84 2782.69 1443.84 2776.34 1443.84 2771.19 1438.69 2771.19 1432.34 2771.19 1425.99 2776.34 1420.84 2782.69 1420.84 2789.04 1420.84 2794.19 1425.99 2794.19 1432.34Z" fill="#ED7D31"/><path d="M3207.19 1311.34C3207.19 1317.69 3202.04 1322.84 3195.69 1322.84 3189.34 1322.84 3184.19 1317.69 3184.19 1311.34 3184.19 1304.99 3189.34 1299.84 3195.69 1299.84 3202.04 1299.84 3207.19 1304.99 3207.19 1311.34Z" fill="#ED7D31"/><path d="M3621.19 1315.34C3621.19 1321.69 3616.04 1326.84 3609.69 1326.84 3603.34 1326.84 3598.19 1321.69 3598.19 1315.34 3598.19 1308.99 3603.34 1303.84 3609.69 1303.84 3616.04 1303.84 3621.19 1308.99 3621.19 1315.34Z" fill="#ED7D31"/><path d="M4034.19 929.343C4034.19 935.694 4029.04 940.843 4022.69 940.843 4016.34 940.843 4011.19 935.694 4011.19 929.343 4011.19 922.992 4016.34 917.843 4022.69 917.843 4029.04 917.843 4034.19 922.992 4034.19 929.343Z" fill="#ED7D31"/></g><g clip-path="url(#clip70)"><path d="M2368 1376.05 2782.09 1421.05 3195.1 1476.05 3609.12 1051 4022 1491" stroke="#4472C4" stroke-width="10.3125" stroke-linecap="round" stroke-linejoin="round" stroke-miterlimit="10" stroke-dasharray="0 20.625" stroke-opacity="0.74902" fill="none"/></g><g clip-path="url(#clip71)"><path d="M2380.19 1376.34C2380.19 1382.69 2375.04 1387.84 2368.69 1387.84 2362.34 1387.84 2357.19 1382.69 2357.19 1376.34 2357.19 1369.99 2362.34 1364.84 2368.69 1364.84 2375.04 1364.84 2380.19 1369.99 2380.19 1376.34Z" fill="#4472C4"/><path d="M2794.19 1422.34C2794.19 1428.69 2789.04 1433.84 2782.69 1433.84 2776.34 1433.84 2771.19 1428.69 2771.19 1422.34 2771.19 1415.99 2776.34 1410.84 2782.69 1410.84 2789.04 1410.84 2794.19 1415.99 2794.19 1422.34Z" fill="#4472C4"/><path d="M3207.19 1476.34C3207.19 1482.69 3202.04 1487.84 3195.69 1487.84 3189.34 1487.84 3184.19 1482.69 3184.19 1476.34 3184.19 1469.99 3189.34 1464.84 3195.69 1464.84 3202.04 1464.84 3207.19 1469.99 3207.19 1476.34Z" fill="#4472C4"/><path d="M3621.19 1051.34C3621.19 1057.69 3616.04 1062.84 3609.69 1062.84 3603.34 1062.84 3598.19 1057.69 3598.19 1051.34 3598.19 1044.99 3603.34 1039.84 3609.69 1039.84 3616.04 1039.84 3621.19 1044.99 3621.19 1051.34Z" fill="#4472C4"/><path d="M4034.19 1491.34C4034.19 1497.69 4029.04 1502.84 4022.69 1502.84 4016.34 1502.84 4011.19 1497.69 4011.19 1491.34 4011.19 1484.99 4016.34 1479.84 4022.69 1479.84 4029.04 1479.84 4034.19 1484.99 4034.19 1491.34Z" fill="#4472C4"/></g><g clip-path="url(#clip72)"><path d="M2368 1812 2782.09 1812.06 3195.1 1813.06 3609.12 1814 4022 1812.06" stroke="#ED7D31" stroke-width="10.3125" stroke-linecap="round" stroke-linejoin="round" stroke-miterlimit="10" stroke-dasharray="0 20.625" stroke-opacity="0.74902" fill="none"/></g><g clip-path="url(#clip73)"><path d="M2380.19 1812.34C2380.19 1818.69 2375.04 1823.84 2368.69 1823.84 2362.34 1823.84 2357.19 1818.69 2357.19 1812.34 2357.19 1805.99 2362.34 1800.84 2368.69 1800.84 2375.04 1800.84 2380.19 1805.99 2380.19 1812.34Z" fill="#ED7D31"/><path d="M2794.19 1812.34C2794.19 1818.69 2789.04 1823.84 2782.69 1823.84 2776.34 1823.84 2771.19 1818.69 2771.19 1812.34 2771.19 1805.99 2776.34 1800.84 2782.69 1800.84 2789.04 1800.84 2794.19 1805.99 2794.19 1812.34Z" fill="#ED7D31"/><path d="M3207.19 1813.34C3207.19 1819.69 3202.04 1824.84 3195.69 1824.84 3189.34 1824.84 3184.19 1819.69 3184.19 1813.34 3184.19 1806.99 3189.34 1801.84 3195.69 1801.84 3202.04 1801.84 3207.19 1806.99 3207.19 1813.34Z" fill="#ED7D31"/><path d="M3621.19 1814.34C3621.19 1820.69 3616.04 1825.84 3609.69 1825.84 3603.34 1825.84 3598.19 1820.69 3598.19 1814.34 3598.19 1807.99 3603.34 1802.84 3609.69 1802.84 3616.04 1802.84 3621.19 1807.99 3621.19 1814.34Z" fill="#ED7D31"/><path d="M4034.19 1812.34C4034.19 1818.69 4029.04 1823.84 4022.69 1823.84 4016.34 1823.84 4011.19 1818.69 4011.19 1812.34 4011.19 1805.99 4016.34 1800.84 4022.69 1800.84 4029.04 1800.84 4034.19 1805.99 4034.19 1812.34Z" fill="#ED7D31"/></g><g clip-path="url(#clip74)"><path d="M2368 1800.06 2782.09 1800.06 3195.1 1798 3609.12 1799.06 4022 1802" stroke="#4472C4" stroke-width="10.3125" stroke-linecap="round" stroke-linejoin="round" stroke-miterlimit="10" stroke-dasharray="0 20.625" stroke-opacity="0.74902" fill="none"/></g><g clip-path="url(#clip75)"><path d="M2380.19 1800.34C2380.19 1806.69 2375.04 1811.84 2368.69 1811.84 2362.34 1811.84 2357.19 1806.69 2357.19 1800.34 2357.19 1793.99 2362.34 1788.84 2368.69 1788.84 2375.04 1788.84 2380.19 1793.99 2380.19 1800.34Z" fill="#4472C4"/><path d="M2794.19 1801.34C2794.19 1807.69 2789.04 1812.84 2782.69 1812.84 2776.34 1812.84 2771.19 1807.69 2771.19 1801.34 2771.19 1794.99 2776.34 1789.84 2782.69 1789.84 2789.04 1789.84 2794.19 1794.99 2794.19 1801.34Z" fill="#4472C4"/><path d="M3207.19 1798.34C3207.19 1804.69 3202.04 1809.84 3195.69 1809.84 3189.34 1809.84 3184.19 1804.69 3184.19 1798.34 3184.19 1791.99 3189.34 1786.84 3195.69 1786.84 3202.04 1786.84 3207.19 1791.99 3207.19 1798.34Z" fill="#4472C4"/><path d="M3621.19 1799.34C3621.19 1805.69 3616.04 1810.84 3609.69 1810.84 3603.34 1810.84 3598.19 1805.69 3598.19 1799.34 3598.19 1792.99 3603.34 1787.84 3609.69 1787.84 3616.04 1787.84 3621.19 1792.99 3621.19 1799.34Z" fill="#4472C4"/><path d="M4034.19 1802.34C4034.19 1808.69 4029.04 1813.84 4022.69 1813.84 4016.34 1813.84 4011.19 1808.69 4011.19 1802.34 4011.19 1795.99 4016.34 1790.84 4022.69 1790.84 4029.04 1790.84 4034.19 1795.99 4034.19 1802.34Z" fill="#4472C4"/></g><g clip-path="url(#clip76)"><text fill="#595959" font-family="Calibri,Calibri_MSFontService,sans-serif" font-weight="400" font-size="41" transform="matrix(1 0 0 1 4267.2 1863)">-10.00</text></g><g clip-path="url(#clip77)"><text fill="#595959" font-family="Calibri,Calibri_MSFontService,sans-serif" font-weight="400" font-size="41" transform="matrix(1 0 0 1 4267.2 1724)">40.00</text></g><g clip-path="url(#clip78)"><text fill="#595959" font-family="Calibri,Calibri_MSFontService,sans-serif" font-weight="400" font-size="41" transform="matrix(1 0 0 1 4267.2 1586)">90.00</text></g><g clip-path="url(#clip79)"><text fill="#595959" font-family="Calibri,Calibri_MSFontService,sans-serif" font-weight="400" font-size="41" transform="matrix(1 0 0 1 4267.2 1447)">140.00</text></g><g clip-path="url(#clip80)"><text fill="#595959" font-family="Calibri,Calibri_MSFontService,sans-serif" font-weight="400" font-size="41" transform="matrix(1 0 0 1 4267.2 1308)">190.00</text></g><g clip-path="url(#clip81)"><text fill="#595959" font-family="Calibri,Calibri_MSFontService,sans-serif" font-weight="400" font-size="41" transform="matrix(1 0 0 1 4267.2 1169)">240.00</text></g><g clip-path="url(#clip82)"><text fill="#595959" font-family="Calibri,Calibri_MSFontService,sans-serif" font-weight="400" font-size="41" transform="matrix(1 0 0 1 4267.2 1030)">290.00</text></g><g clip-path="url(#clip83)"><text fill="#595959" font-family="Calibri,Calibri_MSFontService,sans-serif" font-weight="400" font-size="41" transform="matrix(1 0 0 1 4267.2 891)">340.00</text></g><g clip-path="url(#clip84)"><text fill="#595959" font-family="Calibri,Calibri_MSFontService,sans-serif" font-weight="400" font-size="41" transform="matrix(1 0 0 1 2050.2 1863)">0.00</text></g><g clip-path="url(#clip85)"><text fill="#595959" font-family="Calibri,Calibri_MSFontService,sans-serif" font-weight="400" font-size="41" transform="matrix(1 0 0 1 2029.3 1766)">10.00</text></g><g clip-path="url(#clip86)"><text fill="#595959" font-family="Calibri,Calibri_MSFontService,sans-serif" font-weight="400" font-size="41" transform="matrix(1 0 0 1 2029.3 1669)">20.00</text></g><g clip-path="url(#clip87)"><text fill="#595959" font-family="Calibri,Calibri_MSFontService,sans-serif" font-weight="400" font-size="41" transform="matrix(1 0 0 1 2029.3 1572)">30.00</text></g><g clip-path="url(#clip88)"><text fill="#595959" font-family="Calibri,Calibri_MSFontService,sans-serif" font-weight="400" font-size="41" transform="matrix(1 0 0 1 2029.3 1474)">40.00</text></g><g clip-path="url(#clip89)"><text fill="#595959" font-family="Calibri,Calibri_MSFontService,sans-serif" font-weight="400" font-size="41" transform="matrix(1 0 0 1 2029.3 1377)">50.00</text></g><g clip-path="url(#clip90)"><text fill="#595959" font-family="Calibri,Calibri_MSFontService,sans-serif" font-weight="400" font-size="41" transform="matrix(1 0 0 1 2029.3 1280)">60.00</text></g><g clip-path="url(#clip91)"><text fill="#595959" font-family="Calibri,Calibri_MSFontService,sans-serif" font-weight="400" font-size="41" transform="matrix(1 0 0 1 2029.3 1183)">70.00</text></g><g clip-path="url(#clip92)"><text fill="#595959" font-family="Calibri,Calibri_MSFontService,sans-serif" font-weight="400" font-size="41" transform="matrix(1 0 0 1 2029.3 1086)">80.00</text></g><g clip-path="url(#clip93)"><text fill="#595959" font-family="Calibri,Calibri_MSFontService,sans-serif" font-weight="400" font-size="41" transform="matrix(1 0 0 1 2029.3 989)">90.00</text></g><g clip-path="url(#clip94)"><text fill="#595959" font-family="Calibri,Calibri_MSFontService,sans-serif" font-weight="400" font-size="41" transform="matrix(1 0 0 1 2008.4 891)">100.00</text></g><g clip-path="url(#clip95)"><text fill="#595959" font-family="Calibri,Calibri_MSFontService,sans-serif" font-weight="400" font-size="46" transform="matrix(6.12323e-17 -1 1 6.12323e-17 1956.4 1479)">Latency (ms)</text></g><g clip-path="url(#clip96)"><text fill="#595959" font-family="Calibri,Calibri_MSFontService,sans-serif" font-weight="400" font-size="46" transform="matrix(1 0 0 1 3100.62 2361)">Attempt #</text></g><g clip-path="url(#clip97)"><text fill="#595959" font-family="Calibri,Calibri_MSFontService,sans-serif" font-weight="400" font-size="64" transform="matrix(1 0 0 1 2289.43 805)">Latency Comparison Between Cluster and Standalone </text></g><rect x="1557.5" y="710.5" width="2855" height="1720" stroke="#4472C4" stroke-width="3.4375" stroke-linejoin="round" stroke-miterlimit="10" fill="none"/></g></svg>