<svg width="2857" height="1723" xmlns="http://www.w3.org/2000/svg" xmlns:xlink="http://www.w3.org/1999/xlink" xml:space="preserve" overflow="hidden"><defs><clipPath id="clip0"><rect x="467" y="709" width="2857" height="1723"/></clipPath><clipPath id="clip1"><rect x="467" y="709" width="2855" height="1721"/></clipPath><clipPath id="clip2"><rect x="467" y="709" width="2855" height="1721"/></clipPath><clipPath id="clip3"><rect x="747" y="879" width="2528" height="1246"/></clipPath><clipPath id="clip4"><rect x="467" y="709" width="2855" height="1721"/></clipPath><clipPath id="clip5"><rect x="747" y="879" width="2528" height="1246"/></clipPath><clipPath id="clip6"><rect x="467" y="709" width="2855" height="1721"/></clipPath><clipPath id="clip7"><rect x="467" y="709" width="2855" height="1721"/></clipPath><clipPath id="clip8"><rect x="467" y="709" width="2855" height="1721"/></clipPath><clipPath id="clip9"><rect x="467" y="709" width="2855" height="1721"/></clipPath><clipPath id="clip10"><rect x="467" y="709" width="2855" height="1721"/></clipPath><clipPath id="clip11"><rect x="467" y="709" width="2855" height="1721"/></clipPath><clipPath id="clip12"><rect x="467" y="709" width="2855" height="1721"/></clipPath><clipPath id="clip13"><rect x="467" y="709" width="2855" height="1721"/></clipPath><clipPath id="clip14"><rect x="467" y="709" width="2855" height="1721"/></clipPath><clipPath id="clip15"><rect x="467" y="709" width="2855" height="1721"/></clipPath><clipPath id="clip16"><rect x="467" y="709" width="2855" height="1721"/></clipPath><clipPath id="clip17"><rect x="467" y="709" width="2855" height="1721"/></clipPath><clipPath id="clip18"><rect x="467" y="709" width="2855" height="1721"/></clipPath><clipPath id="clip19"><rect x="467" y="709" width="2855" height="1721"/></clipPath><clipPath id="clip20"><rect x="467" y="709" width="2855" height="1721"/></clipPath><clipPath id="clip21"><rect x="467" y="709" width="2855" height="1721"/></clipPath><clipPath id="clip22"><rect x="467" y="709" width="2855" height="1721"/></clipPath><clipPath id="clip23"><rect x="467" y="709" width="2855" height="1721"/></clipPath><clipPath id="clip24"><rect x="467" y="709" width="2855" height="1721"/></clipPath><clipPath id="clip25"><rect x="467" y="709" width="2855" height="1721"/></clipPath><clipPath id="clip26"><rect x="467" y="709" width="2855" height="1721"/></clipPath><clipPath id="clip27"><rect x="467" y="709" width="2855" height="1721"/></clipPath><clipPath id="clip28"><rect x="467" y="709" width="2855" height="1721"/></clipPath><clipPath id="clip29"><rect x="467" y="709" width="2855" height="1721"/></clipPath><clipPath id="clip30"><rect x="467" y="709" width="2855" height="1721"/></clipPath><clipPath id="clip31"><rect x="467" y="709" width="2855" height="1721"/></clipPath><clipPath id="clip32"><rect x="467" y="709" width="2855" height="1721"/></clipPath><clipPath id="clip33"><rect x="467" y="709" width="2855" height="1721"/></clipPath><clipPath id="clip34"><rect x="467" y="709" width="2855" height="1721"/></clipPath><clipPath id="clip35"><rect x="467" y="709" width="2855" height="1721"/></clipPath><clipPath id="clip36"><rect x="467" y="709" width="2855" height="1721"/></clipPath><clipPath id="clip37"><rect x="467" y="709" width="2855" height="1721"/></clipPath><clipPath id="clip38"><rect x="467" y="709" width="2855" height="1721"/></clipPath><clipPath id="clip39"><rect x="467" y="709" width="2855" height="1721"/></clipPath></defs><g clip-path="url(#clip0)" transform="translate(-467 -709)"><rect x="468" y="710" width="2854" height="1720" fill="#FFFFFF"/><g clip-path="url(#clip1)"><path d="M747.5 1966.56 3271.5 1966.56M747.5 1811.56 3271.5 1811.56M747.5 1655.55 3271.5 1655.55M747.5 1500.55 3271.5 1500.55M747.5 1345.54 3271.5 1345.54M747.5 1190.54 3271.5 1190.54M747.5 1035.53 3271.5 1035.53M747.5 879.5 3271.5 879.5" stroke="#D9D9D9" stroke-width="3.4375" stroke-linejoin="round" stroke-miterlimit="10" fill="none"/></g><g clip-path="url(#clip2)"><path d="M747.5 2121.5 3271.5 2121.5" stroke="#D9D9D9" stroke-width="3.4375" stroke-linejoin="round" stroke-miterlimit="10" fill="none" fill-rule="evenodd"/></g><g clip-path="url(#clip3)"><path d="M1000 1182 1505.05 1188.04 2010.07 1200.04 2514.08 1226 3019 1192.04" stroke="#ED7D31" stroke-width="10.3125" stroke-linecap="round" stroke-linejoin="round" stroke-miterlimit="10" fill="none"/></g><g clip-path="url(#clip4)"><path d="M1012.5 1182.34C1012.5 1188.69 1007.35 1193.84 1001 1193.84 994.648 1193.84 989.5 1188.69 989.5 1182.34 989.5 1175.99 994.648 1170.84 1001 1170.84 1007.35 1170.84 1012.5 1175.99 1012.5 1182.34Z" fill="#ED7D31"/><path d="M1517.5 1188.34C1517.5 1194.69 1512.35 1199.84 1506 1199.84 1499.65 1199.84 1494.5 1194.69 1494.5 1188.34 1494.5 1181.99 1499.65 1176.84 1506 1176.84 1512.35 1176.84 1517.5 1181.99 1517.5 1188.34Z" fill="#ED7D31"/><path d="M2022.5 1200.34C2022.5 1206.69 2017.35 1211.84 2011 1211.84 2004.65 1211.84 1999.5 1206.69 1999.5 1200.34 1999.5 1193.99 2004.65 1188.84 2011 1188.84 2017.35 1188.84 2022.5 1193.99 2022.5 1200.34Z" fill="#ED7D31"/><path d="M2527.5 1226.34C2527.5 1232.69 2522.35 1237.84 2516 1237.84 2509.65 1237.84 2504.5 1232.69 2504.5 1226.34 2504.5 1219.99 2509.65 1214.84 2516 1214.84 2522.35 1214.84 2527.5 1219.99 2527.5 1226.34Z" fill="#ED7D31"/><path d="M3031.5 1193.34C3031.5 1199.69 3026.35 1204.84 3020 1204.84 3013.65 1204.84 3008.5 1199.69 3008.5 1193.34 3008.5 1186.99 3013.65 1181.84 3020 1181.84 3026.35 1181.84 3031.5 1186.99 3031.5 1193.34Z" fill="#ED7D31"/></g><g clip-path="url(#clip5)"><path d="M1000 1772.06 1505.05 1754 2010.07 1762.06 2514.08 1782 3019 1776.06" stroke="#4472C4" stroke-width="10.3125" stroke-linecap="round" stroke-linejoin="round" stroke-miterlimit="10" fill="none"/></g><g clip-path="url(#clip6)"><path d="M1012.5 1772.34C1012.5 1778.69 1007.35 1783.84 1001 1783.84 994.648 1783.84 989.5 1778.69 989.5 1772.34 989.5 1765.99 994.648 1760.84 1001 1760.84 1007.35 1760.84 1012.5 1765.99 1012.5 1772.34Z" fill="#4472C4"/><path d="M1517.5 1754.34C1517.5 1760.69 1512.35 1765.84 1506 1765.84 1499.65 1765.84 1494.5 1760.69 1494.5 1754.34 1494.5 1747.99 1499.65 1742.84 1506 1742.84 1512.35 1742.84 1517.5 1747.99 1517.5 1754.34Z" fill="#4472C4"/><path d="M2022.5 1762.34C2022.5 1768.69 2017.35 1773.84 2011 1773.84 2004.65 1773.84 1999.5 1768.69 1999.5 1762.34 1999.5 1755.99 2004.65 1750.84 2011 1750.84 2017.35 1750.84 2022.5 1755.99 2022.5 1762.34Z" fill="#4472C4"/><path d="M2527.5 1782.34C2527.5 1788.69 2522.35 1793.84 2516 1793.84 2509.65 1793.84 2504.5 1788.69 2504.5 1782.34 2504.5 1775.99 2509.65 1770.84 2516 1770.84 2522.35 1770.84 2527.5 1775.99 2527.5 1782.34Z" fill="#4472C4"/><path d="M3031.5 1776.34C3031.5 1782.69 3026.35 1787.84 3020 1787.84 3013.65 1787.84 3008.5 1782.69 3008.5 1776.34 3008.5 1769.99 3013.65 1764.84 3020 1764.84 3026.35 1764.84 3031.5 1769.99 3031.5 1776.34Z" fill="#4472C4"/></g><g clip-path="url(#clip7)"><text fill="#ED7D31" font-family="Calibri,Calibri_MSFontService,sans-serif" font-weight="400" font-size="41" transform="matrix(1 0 0 1 942.614 1139)">402.65</text></g><g clip-path="url(#clip8)"><text fill="#ED7D31" font-family="Calibri,Calibri_MSFontService,sans-serif" font-weight="400" font-size="41" transform="matrix(1 0 0 1 1447.44 1144)">400.78</text></g><g clip-path="url(#clip9)"><text fill="#ED7D31" font-family="Calibri,Calibri_MSFontService,sans-serif" font-weight="400" font-size="41" transform="matrix(1 0 0 1 1952.27 1156)">396.90</text></g><g clip-path="url(#clip10)"><text fill="#ED7D31" font-family="Calibri,Calibri_MSFontService,sans-serif" font-weight="400" font-size="41" transform="matrix(1 0 0 1 2457.1 1182)">388.53</text></g><g clip-path="url(#clip11)"><text fill="#ED7D31" font-family="Calibri,Calibri_MSFontService,sans-serif" font-weight="400" font-size="41" transform="matrix(1 0 0 1 2961.93 1149)">399.28</text></g><g clip-path="url(#clip12)"><text fill="#4472C4" font-family="Calibri,Calibri_MSFontService,sans-serif" font-weight="400" font-size="41" transform="matrix(1 0 0 1 942.614 1729)">212.58</text></g><g clip-path="url(#clip13)"><text fill="#4472C4" font-family="Calibri,Calibri_MSFontService,sans-serif" font-weight="400" font-size="41" transform="matrix(1 0 0 1 1447.44 1710)">218.49</text></g><g clip-path="url(#clip14)"><text fill="#4472C4" font-family="Calibri,Calibri_MSFontService,sans-serif" font-weight="400" font-size="41" transform="matrix(1 0 0 1 1952.27 1718)">215.99</text></g><g clip-path="url(#clip15)"><text fill="#4472C4" font-family="Calibri,Calibri_MSFontService,sans-serif" font-weight="400" font-size="41" transform="matrix(1 0 0 1 2457.1 1739)">209.36</text></g><g clip-path="url(#clip16)"><text fill="#4472C4" font-family="Calibri,Calibri_MSFontService,sans-serif" font-weight="400" font-size="41" transform="matrix(1 0 0 1 2961.93 1733)">211.20</text></g><g clip-path="url(#clip17)"><text fill="#595959" font-family="Calibri,Calibri_MSFontService,sans-serif" font-weight="400" font-size="41" transform="matrix(1 0 0 1 594.481 2133)">100.00</text></g><g clip-path="url(#clip18)"><text fill="#595959" font-family="Calibri,Calibri_MSFontService,sans-serif" font-weight="400" font-size="41" transform="matrix(1 0 0 1 594.481 1978)">150.00</text></g><g clip-path="url(#clip19)"><text fill="#595959" font-family="Calibri,Calibri_MSFontService,sans-serif" font-weight="400" font-size="41" transform="matrix(1 0 0 1 594.481 1823)">200.00</text></g><g clip-path="url(#clip20)"><text fill="#595959" font-family="Calibri,Calibri_MSFontService,sans-serif" font-weight="400" font-size="41" transform="matrix(1 0 0 1 594.481 1668)">250.00</text></g><g clip-path="url(#clip21)"><text fill="#595959" font-family="Calibri,Calibri_MSFontService,sans-serif" font-weight="400" font-size="41" transform="matrix(1 0 0 1 594.481 1512)">300.00</text></g><g clip-path="url(#clip22)"><text fill="#595959" font-family="Calibri,Calibri_MSFontService,sans-serif" font-weight="400" font-size="41" transform="matrix(1 0 0 1 594.481 1357)">350.00</text></g><g clip-path="url(#clip23)"><text fill="#595959" font-family="Calibri,Calibri_MSFontService,sans-serif" font-weight="400" font-size="41" transform="matrix(1 0 0 1 594.481 1202)">400.00</text></g><g clip-path="url(#clip24)"><text fill="#595959" font-family="Calibri,Calibri_MSFontService,sans-serif" font-weight="400" font-size="41" transform="matrix(1 0 0 1 594.481 1047)">450.00</text></g><g clip-path="url(#clip25)"><text fill="#595959" font-family="Calibri,Calibri_MSFontService,sans-serif" font-weight="400" font-size="41" transform="matrix(1 0 0 1 594.481 891)">500.00</text></g><g clip-path="url(#clip26)"><text fill="#595959" font-family="Calibri,Calibri_MSFontService,sans-serif" font-weight="400" font-size="41" transform="matrix(1 0 0 1 989.617 2187)">1</text></g><g clip-path="url(#clip27)"><text fill="#595959" font-family="Calibri,Calibri_MSFontService,sans-serif" font-weight="400" font-size="41" transform="matrix(1 0 0 1 1494.45 2187)">2</text></g><g clip-path="url(#clip28)"><text fill="#595959" font-family="Calibri,Calibri_MSFontService,sans-serif" font-weight="400" font-size="41" transform="matrix(1 0 0 1 1999.27 2187)">3</text></g><g clip-path="url(#clip29)"><text fill="#595959" font-family="Calibri,Calibri_MSFontService,sans-serif" font-weight="400" font-size="41" transform="matrix(1 0 0 1 2504.1 2187)">4</text></g><g clip-path="url(#clip30)"><text fill="#595959" font-family="Calibri,Calibri_MSFontService,sans-serif" font-weight="400" font-size="41" transform="matrix(1 0 0 1 3008.93 2187)">5</text></g><g clip-path="url(#clip31)"><text fill="#595959" font-family="Calibri,Calibri_MSFontService,sans-serif" font-weight="400" font-size="46" transform="matrix(6.12323e-17 -1 1 6.12323e-17 545.875 1920)">Throughput (Transactions / Second)</text></g><g clip-path="url(#clip32)"><text fill="#595959" font-family="Calibri,Calibri_MSFontService,sans-serif" font-weight="400" font-size="46" transform="matrix(1 0 0 1 1915.09 2256)">Attempt #</text></g><g clip-path="url(#clip33)"><text fill="#595959" font-family="Calibri,Calibri_MSFontService,sans-serif" font-weight="400" font-size="64" transform="matrix(1 0 0 1 1146.26 805)">Throughput Comparison Between Cluster and Standalone </text></g><g clip-path="url(#clip34)"><path d="M1628 2364 1716 2364" stroke="#ED7D31" stroke-width="10.3125" stroke-linecap="round" stroke-linejoin="round" stroke-miterlimit="10" fill="none" fill-rule="evenodd"/></g><g clip-path="url(#clip35)"><path d="M1684 2363.5C1684 2369.85 1678.85 2375 1672.5 2375 1666.15 2375 1661 2369.85 1661 2363.5 1661 2357.15 1666.15 2352 1672.5 2352 1678.85 2352 1684 2357.15 1684 2363.5Z" fill="#ED7D31"/></g><g clip-path="url(#clip36)"><text fill="#595959" font-family="Calibri,Calibri_MSFontService,sans-serif" font-weight="400" font-size="41" transform="matrix(1 0 0 1 1725.46 2375)">Cluster</text></g><g clip-path="url(#clip37)"><path d="M1891 2364 1979 2364" stroke="#4472C4" stroke-width="10.3125" stroke-linecap="round" stroke-linejoin="round" stroke-miterlimit="10" fill="none" fill-rule="evenodd"/></g><g clip-path="url(#clip38)"><path d="M1947 2363.5C1947 2369.85 1941.85 2375 1935.5 2375 1929.15 2375 1924 2369.85 1924 2363.5 1924 2357.15 1929.15 2352 1935.5 2352 1941.85 2352 1947 2357.15 1947 2363.5Z" fill="#4472C4"/></g><g clip-path="url(#clip39)"><text fill="#595959" font-family="Calibri,Calibri_MSFontService,sans-serif" font-weight="400" font-size="41" transform="matrix(1 0 0 1 1988.62 2375)">Standalone</text></g><rect x="468.5" y="710.5" width="2854" height="1720" stroke="#4472C4" stroke-width="3.4375" stroke-linejoin="round" stroke-miterlimit="10" fill="none"/></g></svg>