<svg width="1377" height="992" xmlns="http://www.w3.org/2000/svg" xmlns:xlink="http://www.w3.org/1999/xlink" xml:space="preserve" overflow="hidden"><defs><clipPath id="clip0"><rect x="1663" y="556" width="1377" height="992"/></clipPath><clipPath id="clip1"><rect x="1663" y="556" width="1375" height="990"/></clipPath><clipPath id="clip2"><rect x="1663" y="556" width="1375" height="990"/></clipPath><clipPath id="clip3"><rect x="1663" y="556" width="1375" height="990"/></clipPath><clipPath id="clip4"><rect x="1663" y="556" width="1375" height="990"/></clipPath><clipPath id="clip5"><rect x="1663" y="556" width="1375" height="990"/></clipPath><clipPath id="clip6"><rect x="1663" y="556" width="1375" height="990"/></clipPath><clipPath id="clip7"><rect x="1663" y="556" width="1375" height="990"/></clipPath><clipPath id="clip8"><rect x="1663" y="556" width="1375" height="990"/></clipPath><clipPath id="clip9"><rect x="1663" y="556" width="1375" height="990"/></clipPath><clipPath id="clip10"><rect x="1663" y="556" width="1375" height="990"/></clipPath><clipPath id="clip11"><rect x="1663" y="556" width="1375" height="990"/></clipPath><clipPath id="clip12"><rect x="1663" y="556" width="1375" height="990"/></clipPath><clipPath id="clip13"><rect x="1663" y="556" width="1375" height="990"/></clipPath></defs><g clip-path="url(#clip0)" transform="translate(-1663 -556)"><rect x="1664" y="557" width="1375" height="990" fill="#FFFFFF"/><g clip-path="url(#clip1)"><path d="M2351.25 774.719C2508.39 774.719 2635.77 902.104 2635.77 1059.24 2635.77 1216.38 2508.39 1343.77 2351.25 1343.77 2227.91 1343.77 2118.62 1264.3 2080.59 1146.97L2351.25 1059.24Z" fill="#4472C4" fill-rule="evenodd"/></g><g clip-path="url(#clip2)"><path d="M2080.59 1146.97C2042.6 1029.77 2084.36 901.429 2184.05 829.028L2351.25 1059.24Z" fill="#ED7D31" fill-rule="evenodd"/></g><g clip-path="url(#clip3)"><path d="M2184.05 829.028C2232.66 793.73 2291.18 774.719 2351.25 774.719L2351.25 1059.24Z" fill="#70AD47" fill-rule="evenodd"/></g><g clip-path="url(#clip4)"><text font-family="Calibri,Calibri_MSFontService,sans-serif" font-weight="400" font-size="46" transform="matrix(1 0 0 1 2607.88 1275)">70%</text></g><g clip-path="url(#clip5)"><text font-family="Calibri,Calibri_MSFontService,sans-serif" font-weight="400" font-size="46" transform="matrix(1 0 0 1 1972.89 972)">20%</text></g><g clip-path="url(#clip6)"><text font-family="Calibri,Calibri_MSFontService,sans-serif" font-weight="400" font-size="46" transform="matrix(1 0 0 1 2166.22 759)">10%</text></g><g clip-path="url(#clip7)"><text font-family="Calibri,Calibri_MSFontService,sans-serif" font-weight="400" font-size="64" transform="matrix(1 0 0 1 1849.48 652)">Benchmarks composition (Standalone)</text></g><g clip-path="url(#clip8)"><rect x="2139" y="1469" width="22.9998" height="23" fill="#4472C4"/></g><g clip-path="url(#clip9)"><text font-family="Calibri,Calibri_MSFontService,sans-serif" font-weight="400" font-size="41" transform="matrix(1 0 0 1 2171.17 1492)">Read</text></g><g clip-path="url(#clip10)"><rect x="2289" y="1469" width="23" height="23" fill="#ED7D31"/></g><g clip-path="url(#clip11)"><text font-family="Calibri,Calibri_MSFontService,sans-serif" font-weight="400" font-size="41" transform="matrix(1 0 0 1 2321.48 1492)">Write</text></g><g clip-path="url(#clip12)"><rect x="2450" y="1469" width="23" height="23" fill="#70AD47"/></g><g clip-path="url(#clip13)"><text font-family="Calibri,Calibri_MSFontService,sans-serif" font-weight="400" font-size="41" transform="matrix(1 0 0 1 2482.34 1492)">Other</text></g><rect x="1664" y="557" width="1375" height="990" stroke="#898989" stroke-width="2.29167" stroke-linejoin="round" stroke-miterlimit="10" fill="none"/></g></svg>