<svg width="1375" height="992" xmlns="http://www.w3.org/2000/svg" xmlns:xlink="http://www.w3.org/1999/xlink" xml:space="preserve" overflow="hidden"><defs><clipPath id="clip0"><rect x="283" y="558" width="1375" height="992"/></clipPath><clipPath id="clip1"><rect x="283" y="558" width="1373" height="990"/></clipPath><clipPath id="clip2"><rect x="283" y="558" width="1373" height="990"/></clipPath><clipPath id="clip3"><rect x="283" y="558" width="1373" height="990"/></clipPath><clipPath id="clip4"><rect x="283" y="558" width="1373" height="990"/></clipPath><clipPath id="clip5"><rect x="283" y="558" width="1373" height="990"/></clipPath><clipPath id="clip6"><rect x="283" y="558" width="1373" height="990"/></clipPath><clipPath id="clip7"><rect x="283" y="558" width="1373" height="990"/></clipPath><clipPath id="clip8"><rect x="283" y="558" width="1373" height="990"/></clipPath><clipPath id="clip9"><rect x="283" y="558" width="1373" height="990"/></clipPath><clipPath id="clip10"><rect x="283" y="558" width="1373" height="990"/></clipPath><clipPath id="clip11"><rect x="283" y="558" width="1373" height="990"/></clipPath><clipPath id="clip12"><rect x="283" y="558" width="1373" height="990"/></clipPath><clipPath id="clip13"><rect x="283" y="558" width="1373" height="990"/></clipPath></defs><g clip-path="url(#clip0)" transform="translate(-283 -558)"><rect x="284" y="559" width="1373" height="990" fill="#FFFFFF"/><g clip-path="url(#clip1)"><path d="M970.234 776.438C1127.37 776.438 1254.76 903.823 1254.76 1060.96 1254.76 1218.1 1127.37 1345.48 970.234 1345.48 846.927 1345.48 737.654 1266.06 699.6 1148.77L970.234 1060.96Z" fill="#4472C4" fill-rule="evenodd"/></g><g clip-path="url(#clip2)"><path d="M699.6 1148.77C661.569 1031.56 703.317 903.181 803.02 830.759L970.234 1060.96Z" fill="#ED7D31" fill-rule="evenodd"/></g><g clip-path="url(#clip3)"><path d="M803.02 830.759C851.626 795.453 910.159 776.438 970.234 776.438L970.234 1060.96Z" fill="#70AD47" fill-rule="evenodd"/></g><g clip-path="url(#clip4)"><text font-family="Calibri,Calibri_MSFontService,sans-serif" font-weight="400" font-size="46" transform="matrix(1 0 0 1 1226.89 1276)">70%</text></g><g clip-path="url(#clip5)"><text font-family="Calibri,Calibri_MSFontService,sans-serif" font-weight="400" font-size="46" transform="matrix(1 0 0 1 591.853 974)">20%</text></g><g clip-path="url(#clip6)"><text font-family="Calibri,Calibri_MSFontService,sans-serif" font-weight="400" font-size="46" transform="matrix(1 0 0 1 785.182 761)">10%</text></g><g clip-path="url(#clip7)"><text font-family="Calibri,Calibri_MSFontService,sans-serif" font-weight="400" font-size="64" transform="matrix(1 0 0 1 524.047 654)">Benchmarks composition (Cluster)</text></g><g clip-path="url(#clip8)"><rect x="758" y="1471" width="23.0001" height="23" fill="#4472C4"/></g><g clip-path="url(#clip9)"><text font-family="Calibri,Calibri_MSFontService,sans-serif" font-weight="400" font-size="41" transform="matrix(1 0 0 1 790.152 1494)">Read</text></g><g clip-path="url(#clip10)"><rect x="908" y="1471" width="23.0001" height="23" fill="#ED7D31"/></g><g clip-path="url(#clip11)"><text font-family="Calibri,Calibri_MSFontService,sans-serif" font-weight="400" font-size="41" transform="matrix(1 0 0 1 940.469 1494)">Write</text></g><g clip-path="url(#clip12)"><rect x="1069" y="1471" width="23" height="23" fill="#70AD47"/></g><g clip-path="url(#clip13)"><text font-family="Calibri,Calibri_MSFontService,sans-serif" font-weight="400" font-size="41" transform="matrix(1 0 0 1 1101.33 1494)">Other</text></g><rect x="284" y="559" width="1373" height="990" stroke="#898989" stroke-width="2.29167" stroke-linejoin="round" stroke-miterlimit="10" fill="none"/></g></svg>